<svg id="Camada_1" data-name="Camada 1" xmlns="http://www.w3.org/2000/svg" viewBox="0 0 636.58 250.94"><defs><style>.cls-1,.cls-2{fill:#13292a;}.cls-1{fill-opacity:0.4;}.cls-3{fill:none;stroke:#000;}</style></defs><path class="cls-1" d="M153.23,174c-11.5-12.45-16.91-29.66-16.91-51.34s5.75-38.88,16.91-51.33A57.68,57.68,0,0,1,197.55,52.5a57.23,57.23,0,0,1,44.32,18.83c11.49,12.45,16.9,29.66,16.9,51.33S253,161.55,241.87,174a57.47,57.47,0,0,1-44.32,18.39A57.44,57.44,0,0,1,153.23,174Zm13.71-98.53c-8.28,11.5-12.45,27.1-12.45,47.19s4.17,35.7,12.45,47.2,18.48,17.53,30.92,17.53,22.65-5.75,30.93-17.53,12.44-27.42,12.44-47.2-4.16-35.72-12.44-47.19-18.48-17.53-30.93-17.53S174.84,63.69,166.94,75.47Z" transform="translate(0 0.15)"/><path class="cls-1" d="M392.76,55.06v3.83h-10.2c-1.93,0-2.87,1-2.87,2.55v86.72c0,15-4.14,26.15-12.77,33.48S346.8,192.8,332.43,192.8s-25.87-3.83-34.49-11.16-12.73-18.48-12.73-33.48V61.44c0-1.58-1-2.55-2.87-2.55H272.25V55.06h43.43v3.83H305.47c-1.89,0-2.87,1-2.87,2.55v88.33c0,12.1,2.87,21,8.91,26.76a33.58,33.58,0,0,0,24.23,8.62,41,41,0,0,0,26.15-8.62c7-5.75,10.84-15.29,10.84-28.05V61.76c0-1.58-1-2.56-3.19-2.56h-9.89V55.38h33.17Z" transform="translate(0 0.15)"/><path class="cls-1" d="M401.9,189.92v-6.15L478.73,60.7H422.6c-3.83,0-5.75,1.58-6.07,4.77L413.4,90.79h-4.77V80.9a146.33,146.33,0,0,0-1.93-27.73,101.58,101.58,0,0,0,23.92,1.89h69.21v6.07L422.6,183.77h61c3.82,0,5.75-1.61,6.06-4.8l3.19-25.18h4.78V164a146.33,146.33,0,0,0,1.92,27.73,101,101,0,0,0-23.91-1.92Z" transform="translate(0 0.15)"/><path class="cls-1" d="M629.37,189.92h-44V186.1h14l-15-41.45H537L522,186.1h14v3.82h-32.3V186.1h8a4.32,4.32,0,0,0,4.17-3.19L563,54.75h7.36l46.85,128.47a4.13,4.13,0,0,0,4.14,3.19h8ZM560.82,80.3l-21.36,58.63h42.71Z" transform="translate(0 0.15)"/><path class="cls-2" d="M159.29,168.94c-11.5-12.42-16.9-29.63-16.9-51.31s5.75-38.91,16.9-51.33a57.5,57.5,0,0,1,44.29-18.83,57.15,57.15,0,0,1,44.29,18.86c11.5,12.42,16.9,29.63,16.9,51.33S259,156.55,247.87,169s-26.09,18.48-44.29,18.48S170.44,181.39,159.29,168.94Zm13.39-98.5c-8.3,11.5-12.44,27.1-12.44,47.19s4.14,35.7,12.44,47.17,18.48,17.53,30.9,17.53,22.31-6,30.58-17.85,12.53-27.42,12.53-47.19-4.13-35.7-12.44-47.17-18.48-17.24-30.58-17.24S181,58.63,172.68,70.44Z" transform="translate(0 0.15)"/><path class="cls-2" d="M398.54,50v3.83h-10.2c-1.93,0-2.88.94-2.88,2.55v86.72c0,15-4.14,26.15-12.76,33.48s-20.12,11.16-34.49,11.16-25.87-3.83-34.49-11.16S291,158.1,291,143.13V56.41c0-1.61-.95-2.55-2.88-2.55H278V50h43.66v3.83H311.39c-1.92,0-2.87.94-2.87,2.55v88.3c0,12.13,2.87,21.07,8.94,26.79a33.54,33.54,0,0,0,24.23,8.62,40.91,40.91,0,0,0,26.12-8.62c7-5.75,10.87-15.29,10.87-28.05V56.76c0-1.58-1-2.56-3.19-2.56H365.6V50.38h32.83Z" transform="translate(0 0.15)"/><path class="cls-2" d="M408,184.89v-6.06L484.8,56.1H428.69c-3.82,0-5.75,1.58-6.06,4.77l-3.19,25.18h-5.09V76.19a146.75,146.75,0,0,0-1.93-27.77,99.53,99.53,0,0,0,23.92,1.93h69.18v6.06L428.69,178.83H489.6c3.82,0,5.74-1.58,6-4.77l3.19-25.18h4.8v10.2a147.24,147.24,0,0,0,1.9,27.74,99.45,99.45,0,0,0-23.91-1.93Z" transform="translate(0 0.15)"/><path class="cls-2" d="M635.12,184.89h-44V181.1h14l-15-41.45H543L528,181.1h14v3.82H509.51V181.1h8a4.27,4.27,0,0,0,4.13-3.08l47.2-128.16H576L623.22,178a4.14,4.14,0,0,0,4.14,3.19h8v3.71ZM566.91,75.21l-21.7,58.66H588Z" transform="translate(0 0.15)"/><path class="cls-1" d="M58,197.37a80,80,0,0,1-38.6-10.52,24,24,0,0,0-8.91-3.08c-2.87,0-4.46,1.9-4.77,6.07l-.49,4H0V145H5.26c1.61,15,7.33,26.12,16.58,33.14a55,55,0,0,0,33.49,10.52c12.73,0,22.62-3.51,29.32-10.52a35,35,0,0,0,10.2-24.86c0-15.3-8.91-26.79-26.13-34.5L34,103.64A53.32,53.32,0,0,1,10.43,84.49a48.3,48.3,0,0,1-8-26.15A51.48,51.48,0,0,1,16.76,21.69Q31.13,6.4,57.89,6.37A61.17,61.17,0,0,1,90.54,16.89a19.1,19.1,0,0,0,7.64,3.19c2.56,0,3.83-1.89,4.17-6l.32-5.75h5.4V59H103c-1.61-15-6.38-26.15-14.37-33.17A43.08,43.08,0,0,0,59.3,15.31q-17.25,0-26.79,9.57A29.39,29.39,0,0,0,23,46.56a37.14,37.14,0,0,0,6.66,21.67A42.7,42.7,0,0,0,49.09,83.17L84.16,98.78a60.89,60.89,0,0,1,26.38,20.72,46.22,46.22,0,0,1,8.91,27.42A47.27,47.27,0,0,1,103,183,70.22,70.22,0,0,1,58,197.37Z" transform="translate(0 0.15)"/><path class="cls-2" d="M66.05,190.67a80.07,80.07,0,0,1-38.4-10.55,24.39,24.39,0,0,0-8.94-3.19c-2.87,0-4.45,1.9-4.77,6.06l-.32,4.14H8.13V138.27h5.32c1.58,15,7.33,26.13,16.59,33.14a55,55,0,0,0,33.45,10.52c12.76,0,22.65-3.51,29.35-10.52a32.36,32.36,0,0,0,10.83-24.54c0-15.3-8.91-26.79-26.12-34.5L42.77,97.08A53.25,53.25,0,0,1,19.2,77.94a48.3,48.3,0,0,1-8-26.15A51.74,51.74,0,0,1,25.58,15.17Q39.95-.13,66.71-.15A61,61,0,0,1,99.22,10.54a19.39,19.39,0,0,0,7.64,3.16c2.56,0,3.83-1.89,4.14-6l.32-5.75h5.11v50.7h-5.11C109.74,37.62,105,26.46,97,19.45A43.11,43.11,0,0,0,67.63,8.93q-17.25,0-26.79,9.57A29.61,29.61,0,0,0,31.3,40.06,37.15,37.15,0,0,0,38,61.73a42.6,42.6,0,0,0,19.46,15L92.52,92.34A60.94,60.94,0,0,1,119,113.06a46.31,46.31,0,0,1,8.91,27.6,47.25,47.25,0,0,1-16.58,36A73,73,0,0,1,66.05,190.67Z" transform="translate(0 0.15)"/><path class="cls-3" d="M4.68,239H163.14" transform="translate(0 0.15)"/><path class="cls-3" d="M478.13,240.62H636.58" transform="translate(0 0.15)"/><path class="cls-2" d="M200.4,250.25v-1c2.34-.28,2.63-.65,2.13-2s-1.19-3.21-1.95-5.47h-7.77c-.58,1.62-1.12,3-1.62,4.5-.79,2.33-.29,2.62,2.66,3v1h-8.31v-1c2.26-.28,2.84-.54,4.1-3.78l7.45-18.89,1.15-.22c2.27,6.16,4.75,13,7,19.19,1.15,3.13,1.48,3.42,4,3.7v1Zm-3.6-19.18c-1.15,3.09-2.37,6.37-3.45,9.21h6.73Z" transform="translate(0 0.15)"/><path class="cls-2" d="M228.52,226.85c5.07,0,8.28,1,10.51,3.14a10.4,10.4,0,0,1,3.06,7.7,11.84,11.84,0,0,1-4.5,9.72c-2.74,2.05-6.23,2.84-10.66,2.84h-8.42v-1c3.1-.28,3.24-.54,3.24-3.49V231.39c0-3.1-.43-3.24-3.24-3.53v-1Zm-3.64,18.61c0,2.7,1.15,3.46,3.85,3.46,6.48,0,9.8-4.43,9.8-10.73,0-3.92-1.34-6.91-4.18-8.64a11.43,11.43,0,0,0-6.16-1.44,5.05,5.05,0,0,0-2.84.51c-.32.21-.47.61-.47,2Z" transform="translate(0 0.15)"/><path class="cls-2" d="M275.89,227.86c-2.41.33-3,.65-4.32,3.89-1,2.38-5.94,14.43-7.7,18.9h-1.19c-2.12-5.8-5.22-14.22-7.27-19.55-1-2.66-1.62-3-3.82-3.24v-1h9.15v1c-2.67.29-2.81.72-2.31,2,.9,2.63,3.53,9.79,5.8,15.77,1.91-4.64,4.28-10.51,6-15.05.8-2.08.36-2.41-2.59-2.77v-1h8.28Z" transform="translate(0 0.15)"/><path class="cls-2" d="M296.59,226.35a11.58,11.58,0,0,1,11.67,11.88c0,7.74-5.26,12.56-11.88,12.56a11.71,11.71,0,0,1-11.95-12C284.43,232.33,289,226.35,296.59,226.35Zm-.72,1.33c-4,0-7.7,3.39-7.7,10.12s3.67,11.62,8.78,11.62c4.36,0,7.63-3.24,7.63-10.18C304.58,231.68,300.59,227.68,295.87,227.68Z" transform="translate(0 0.15)"/><path class="cls-2" d="M341.59,244.49a45.18,45.18,0,0,1-2,5.44,33.26,33.26,0,0,1-6.59.86c-8.6,0-13-5.72-13-12,0-7.34,5.58-12.42,13.64-12.42a36.5,36.5,0,0,1,6.8.83c.15,1.62.4,3.78.69,5.58L340,233c-.72-2.41-1.58-3.89-3.42-4.64a9.67,9.67,0,0,0-3.78-.69c-5.94,0-9.07,4.39-9.07,10.33,0,7,3.6,11.41,9.43,11.41,3.68,0,5.47-1.69,7.31-5.29Z" transform="translate(0 0.15)"/><path class="cls-2" d="M366.36,250.25v-1c2.34-.28,2.63-.65,2.12-2s-1.18-3.21-1.94-5.47h-7.78c-.57,1.62-1.11,3-1.62,4.5-.79,2.33-.28,2.62,2.67,3v1h-8.32v-1c2.27-.28,2.85-.54,4.11-3.78l7.45-18.89,1.15-.22c2.27,6.16,4.75,13,7,19.19,1.15,3.13,1.47,3.42,4,3.7v1Zm-3.6-19.18c-1.15,3.09-2.38,6.37-3.46,9.21H366Z" transform="translate(0 0.15)"/><path class="cls-2" d="M405.85,244.49a45.18,45.18,0,0,1-2,5.44,33.26,33.26,0,0,1-6.59.86c-8.6,0-13-5.72-13-12,0-7.34,5.58-12.42,13.64-12.42a36.5,36.5,0,0,1,6.8.83c.15,1.62.4,3.78.69,5.58l-1.12.25c-.72-2.41-1.58-3.89-3.42-4.64a9.67,9.67,0,0,0-3.78-.69c-5.94,0-9.07,4.39-9.07,10.33,0,7,3.6,11.41,9.43,11.41,3.67,0,5.47-1.69,7.31-5.29Z" transform="translate(0 0.15)"/><path class="cls-2" d="M417.08,250.25v-1c3-.32,3.24-.46,3.24-3.52V231.43c0-3.1-.28-3.24-3.24-3.57v-1h9.65v1c-3,.33-3.27.47-3.27,3.57v14.29c0,3.09.28,3.2,3.27,3.52v1Z" transform="translate(0 0.15)"/><path class="cls-2" d="M450.85,250.25v-1c2.34-.28,2.63-.65,2.12-2s-1.18-3.21-1.94-5.47h-7.77c-.58,1.62-1.12,3-1.62,4.5-.8,2.33-.29,2.62,2.66,3v1H436v-1c2.27-.28,2.85-.54,4.11-3.78l7.45-18.89,1.15-.22c2.27,6.16,4.75,13,7,19.19,1.15,3.13,1.48,3.42,4,3.7v1Zm-3.6-19.18c-1.15,3.09-2.38,6.37-3.45,9.21h6.73Z" transform="translate(0 0.15)"/></svg>