<?xml version="1.0" encoding="utf-8"?>
<!-- Generator: Adobe Illustrator 25.2.1, SVG Export Plug-In . SVG Version: 6.00 Build 0)  -->
<svg version="1.1" id="Camada_1" xmlns="http://www.w3.org/2000/svg" xmlns:xlink="http://www.w3.org/1999/xlink" x="0px" y="0px"
	 viewBox="0 0 143.2 259.5" style="enable-background:new 0 0 143.2 259.5;" xml:space="preserve">
<style type="text/css">
	.st0{fill:#13292A;fill-opacity:0.4;}
	.st1{fill:#13292A;}
	.st2{fill:none;stroke:#000000;}
</style>
<path class="st0" d="M160.1,208.6c-11.5-12.4-16.9-29.7-16.9-51.3s5.8-38.9,16.9-51.3c11.3-12.4,27.5-19.3,44.3-18.8
	c16.8-0.5,33,6.3,44.3,18.8c11.5,12.4,16.9,29.7,16.9,51.3s-5.8,38.9-16.9,51.3c-11.4,12.3-27.6,19-44.3,18.4
	C187.7,227.6,171.5,220.9,160.1,208.6z M173.8,110c-8.3,11.5-12.4,27.1-12.4,47.2s4.2,35.7,12.4,47.2s18.5,17.5,30.9,17.5
	s22.6-5.8,30.9-17.5s12.4-27.4,12.4-47.2s-4.2-35.7-12.4-47.2s-18.5-17.5-30.9-17.5S181.7,98.2,173.8,110z"/>
<path class="st0" d="M399.6,89.6v3.8h-10.2c-1.9,0-2.9,1-2.9,2.5v86.7c0,15-4.1,26.1-12.8,33.5s-20.1,11.2-34.5,11.2
	s-25.9-3.8-34.5-11.2s-12.7-18.5-12.7-33.5V96c0-1.6-1-2.5-2.9-2.5h-10.1v-3.8h43.4v3.8h-10.2c-1.9,0-2.9,1-2.9,2.5v88.3
	c0,12.1,2.9,21,8.9,26.8c6.6,6,15.3,9.1,24.2,8.6c9.4,0.2,18.7-2.8,26.1-8.6c7-5.8,10.8-15.3,10.8-28.1V96.3c0-1.6-1-2.6-3.2-2.6
	h-9.9v-3.8h33.2L399.6,89.6z"/>
<path class="st0" d="M408.8,224.5v-6.1l76.8-123.1h-56.1c-3.8,0-5.8,1.6-6.1,4.8l-3.1,25.3h-4.8v-9.9c0.2-9.3-0.4-18.6-1.9-27.7
	c7.9,1.6,15.9,2.2,23.9,1.9h69.2v6.1l-77.2,122.6h61c3.8,0,5.8-1.6,6.1-4.8l3.2-25.2h4.8v10.2c-0.2,9.3,0.4,18.6,1.9,27.7
	c-7.9-1.6-15.9-2.2-23.9-1.9L408.8,224.5z"/>
<path class="st0" d="M636.2,224.5h-44v-3.8h14l-15-41.4h-47.4l-15,41.4h14v3.8h-32.3v-3.8h8c2,0,3.7-1.3,4.2-3.2l47.1-128.2h7.4
	l46.8,128.5c0.4,1.9,2.2,3.2,4.1,3.2h8L636.2,224.5z M567.7,114.9l-21.4,58.6H589L567.7,114.9z"/>
<path class="st1" d="M166.2,203.5c-11.5-12.4-16.9-29.6-16.9-51.3s5.8-38.9,16.9-51.3c11.3-12.5,27.5-19.3,44.3-18.8
	c16.8-0.5,33,6.4,44.3,18.9c11.5,12.4,16.9,29.6,16.9,51.3s-5.8,38.9-16.9,51.3S228.6,222,210.4,222S177.3,215.9,166.2,203.5z
	 M179.5,105c-8.3,11.5-12.4,27.1-12.4,47.2s4.1,35.7,12.4,47.2s18.5,17.5,30.9,17.5s22.3-6,30.6-17.9s12.5-27.4,12.5-47.2
	s-4.1-35.7-12.4-47.2s-18.5-17.2-30.6-17.2S187.9,93.2,179.5,105z"/>
<path class="st1" d="M405.4,84.6v3.8h-10.2c-1.9,0-2.9,0.9-2.9,2.5v86.7c0,15-4.1,26.1-12.8,33.5s-20.1,11.2-34.5,11.2
	s-25.9-3.8-34.5-11.2s-12.7-18.5-12.7-33.4V91c0-1.6-1-2.5-2.9-2.5h-10.1v-3.9h43.7v3.8h-10.3c-1.9,0-2.9,0.9-2.9,2.5v88.3
	c0,12.1,2.9,21.1,8.9,26.8c6.6,6,15.3,9.1,24.2,8.6c9.4,0.2,18.7-2.8,26.1-8.6c7-5.8,10.9-15.3,10.9-28.1V91.3c0-1.6-1-2.6-3.2-2.6
	h-9.9v-3.8h32.8L405.4,84.6z"/>
<path class="st1" d="M414.9,219.4v-6.1l76.8-122.7h-56.1c-3.8,0-5.8,1.6-6.1,4.8l-3.2,25.2h-5.1v-9.9c0.2-9.3-0.4-18.6-1.9-27.8
	c7.9,1.6,15.9,2.3,23.9,1.9h69.2V91l-76.8,122.4h60.9c3.8,0,5.7-1.6,6-4.8l3.2-25.2h4.8v10.2c-0.2,9.3,0.4,18.6,1.9,27.7
	c-7.9-1.6-15.9-2.3-23.9-1.9L414.9,219.4z"/>
<path class="st1" d="M642,219.4h-44v-3.8h14l-15-41.4h-47.1l-15,41.4h14v3.8h-32.5v-3.8h8c1.9,0,3.6-1.2,4.1-3.1l47.2-128.2h7.2
	l47.2,128.1c0.4,1.9,2.2,3.2,4.1,3.2h8v3.7L642,219.4z M573.8,109.8l-21.7,58.7h42.8L573.8,109.8z"/>
<path class="st0" d="M64.9,231.9c-13.5-0.2-26.8-3.8-38.6-10.5c-2.7-1.6-5.8-2.7-8.9-3.1c-2.9,0-4.5,1.9-4.8,6.1l-0.5,4H6.9v-48.8
	h5.3c1.6,15,7.3,26.1,16.6,33.1c9.7,7.1,21.5,10.8,33.5,10.5c12.7,0,22.6-3.5,29.3-10.5c6.6-6.6,10.2-15.5,10.2-24.9
	c0-15.3-8.9-26.8-26.1-34.5l-34.7-15.1c-9.5-4-17.7-10.6-23.6-19.2c-5.1-7.8-7.9-16.8-8-26.2C9,79.3,14.2,66.1,23.6,56.2
	C33.2,46,46.9,40.9,64.8,40.9c11.7,0.3,23,4,32.7,10.5c2.3,1.6,4.9,2.7,7.6,3.2c2.6,0,3.8-1.9,4.2-6l0.3-5.8h5.4v50.7h-5.1
	c-1.6-15-6.4-26.2-14.4-33.2c-8.1-7-18.6-10.8-29.3-10.5c-11.5,0-20.4,3.2-26.8,9.6c-6.1,5.6-9.5,13.4-9.5,21.7
	c-0.1,7.7,2.2,15.3,6.7,21.7c4.9,6.8,11.6,12,19.4,14.9L91,133.3c10.6,4.3,19.7,11.5,26.4,20.7c5.8,8,8.9,17.6,8.9,27.4
	c0.1,13.9-5.9,27-16.4,36.1C97,227.4,81.1,232.5,64.9,231.9z"/>
<path class="st1" d="M72.9,225.2c-13.5-0.2-26.7-3.9-38.4-10.6c-2.7-1.6-5.8-2.7-8.9-3.2c-2.9,0-4.5,1.9-4.8,6.1l-0.3,4.1H15v-48.9
	h5.3c1.6,15,7.3,26.1,16.6,33.1c9.7,7.1,21.5,10.8,33.5,10.5c12.8,0,22.7-3.5,29.4-10.5c7-6.2,10.9-15.2,10.8-24.5
	c0-15.3-8.9-26.8-26.1-34.5l-34.8-15.3c-9.5-4-17.7-10.6-23.6-19.1c-5.1-7.8-7.9-16.8-8-26.2c-0.2-13.6,5-26.8,14.4-36.6
	C42,39.5,55.7,34.4,73.6,34.4c11.6,0.4,22.9,4.1,32.5,10.7c2.3,1.6,4.9,2.7,7.6,3.2c2.6,0,3.8-1.9,4.1-6l0.3-5.8h5.1v50.7h-5.1
	c-1.6-15-6.3-26.2-14.3-33.2c-8.1-7.1-18.6-10.8-29.4-10.5c-11.5,0-20.4,3.2-26.8,9.6c-6,5.6-9.5,13.4-9.5,21.6
	c-0.1,7.7,2.3,15.3,6.7,21.7c4.9,6.8,11.6,12,19.5,15l35.1,15.6c10.6,4.3,19.8,11.5,26.5,20.7c5.8,8,9,17.7,8.9,27.6
	c0,13.9-6,27-16.6,36C105.1,220.8,89.1,225.7,72.9,225.2z"/>
<path class="st2" d="M11.5,273.5H170"/>
<path class="st2" d="M485,275.2h158.4"/>
<path class="st1" d="M207.3,284.8v-1c2.3-0.3,2.6-0.6,2.1-2s-1.2-3.2-1.9-5.5h-7.8c-0.6,1.6-1.1,3-1.6,4.5c-0.8,2.3-0.3,2.6,2.7,3v1
	h-8.3v-1c2.3-0.3,2.8-0.5,4.1-3.8l7.4-18.9l1.1-0.2c2.3,6.2,4.8,13,7,19.2c1.1,3.1,1.5,3.4,4,3.7v1L207.3,284.8z M203.7,265.6
	c-1.1,3.1-2.4,6.4-3.4,9.2h6.7L203.7,265.6z"/>
<path class="st1" d="M235.4,261.4c5.1,0,8.3,1,10.5,3.1c2,2,3.2,4.8,3.1,7.7c0.1,3.8-1.5,7.4-4.5,9.7c-2.7,2.1-6.2,2.8-10.7,2.8
	h-8.4v-1c3.1-0.3,3.2-0.5,3.2-3.5v-14.4c0-3.1-0.4-3.2-3.2-3.5v-1L235.4,261.4z M231.7,280c0,2.7,1.1,3.5,3.9,3.5
	c6.5,0,9.8-4.4,9.8-10.7c0-3.9-1.3-6.9-4.2-8.6c-1.9-1-4-1.5-6.2-1.4c-1-0.1-2,0.1-2.8,0.5c-0.3,0.2-0.5,0.6-0.5,2L231.7,280z"/>
<path class="st1" d="M282.8,262.4c-2.4,0.3-3,0.6-4.3,3.9c-1,2.4-5.9,14.4-7.7,18.9h-1.2c-2.1-5.8-5.2-14.2-7.3-19.5
	c-1-2.7-1.6-3-3.8-3.2v-1h9.2v1c-2.7,0.3-2.8,0.7-2.3,2c0.9,2.6,3.5,9.8,5.8,15.8c1.9-4.6,4.3-10.5,6-15.1c0.8-2.1,0.4-2.4-2.6-2.8
	v-1h8.3L282.8,262.4z"/>
<path class="st1" d="M303.5,260.9c6.4-0.1,11.6,5.1,11.7,11.5c0,0.1,0,0.3,0,0.4c0,7.7-5.3,12.6-11.9,12.6c-6.5,0.1-11.8-5-12-11.5
	c0-0.2,0-0.4,0-0.5C291.3,266.9,295.9,260.9,303.5,260.9z M302.7,262.2c-4,0-7.7,3.4-7.7,10.1c0,6.7,3.7,11.6,8.8,11.6
	c4.4,0,7.6-3.2,7.6-10.2C311.4,266.2,307.5,262.2,302.7,262.2L302.7,262.2z"/>
<path class="st1" d="M348.5,279c-0.5,1.9-1.2,3.7-2,5.4c-2.2,0.5-4.4,0.8-6.6,0.9c-8.6,0-13-5.7-13-12c0-7.3,5.6-12.4,13.6-12.4
	c2.3,0.1,4.6,0.3,6.8,0.8c0.1,1.6,0.4,3.8,0.7,5.6l-1.1,0.2c-0.7-2.4-1.6-3.9-3.4-4.6c-1.2-0.5-2.5-0.7-3.8-0.7
	c-5.9,0-9.1,4.4-9.1,10.3c0,7,3.6,11.4,9.4,11.4c3.7,0,5.5-1.7,7.3-5.3L348.5,279z"/>
<path class="st1" d="M373.2,284.8v-1c2.3-0.3,2.6-0.6,2.1-2s-1.2-3.2-1.9-5.5h-7.8c-0.6,1.6-1.1,3-1.6,4.5c-0.8,2.3-0.3,2.6,2.7,3v1
	h-8.3v-1c2.3-0.3,2.9-0.5,4.1-3.8l7.5-18.9l1.1-0.2c2.3,6.2,4.8,13,7,19.2c1.1,3.1,1.5,3.4,4,3.7v1L373.2,284.8z M369.6,265.6
	c-1.1,3.1-2.4,6.4-3.5,9.2h6.7L369.6,265.6z"/>
<path class="st1" d="M412.7,279c-0.5,1.9-1.2,3.7-2,5.4c-2.2,0.5-4.4,0.8-6.6,0.9c-8.6,0-13-5.7-13-12c0-7.3,5.6-12.4,13.6-12.4
	c2.3,0.1,4.6,0.3,6.8,0.8c0.1,1.6,0.4,3.8,0.7,5.6l-1.1,0.2c-0.7-2.4-1.6-3.9-3.4-4.6c-1.2-0.5-2.5-0.7-3.8-0.7
	c-5.9,0-9.1,4.4-9.1,10.3c0,7,3.6,11.4,9.4,11.4c3.7,0,5.5-1.7,7.3-5.3L412.7,279z"/>
<path class="st1" d="M423.9,284.8v-1c3-0.3,3.2-0.5,3.2-3.5V266c0-3.1-0.3-3.2-3.2-3.6v-1h9.6v1c-3,0.3-3.3,0.5-3.3,3.6v14.3
	c0,3.1,0.3,3.2,3.3,3.5v1L423.9,284.8z"/>
<path class="st1" d="M457.7,284.8v-1c2.3-0.3,2.6-0.6,2.1-2s-1.2-3.2-1.9-5.5h-7.8c-0.6,1.6-1.1,3-1.6,4.5c-0.8,2.3-0.3,2.6,2.7,3v1
	h-8.3v-1c2.3-0.3,2.9-0.5,4.1-3.8l7.5-18.9l1.1-0.2c2.3,6.2,4.8,13,7,19.2c1.1,3.1,1.5,3.4,4,3.7v1L457.7,284.8z M454.1,265.6
	c-1.1,3.1-2.4,6.4-3.5,9.2h6.7L454.1,265.6z"/>
</svg>
